HIERARCHY
ROOT pelvis
{
  OFFSET 0 100 0
  CHANNELS 6 Xposition Yposition Zposition Zrotation Xrotation Yrotation
  JOINT pelvis_right_femur
  {
    OFFSET -10.78128 -3.44521 -0.5502486
    CHANNELS 3 Zrotation Xrotation Yrotation
    JOINT right_femur_tibia
    {
      OFFSET -0.8047443 -44.0398 -0.1307829
      CHANNELS 3 Zrotation Xrotation Yrotation
      JOINT right_tibia_foot
      {
        OFFSET 3.006224 -47.83518 -5
        CHANNELS 3 Zrotation Xrotation Yrotation
        End Site
        {
          OFFSET 0 -5 15
        }
      }
    }
  }
  JOINT pelvis_left_femur
  {
    OFFSET 10.78128 -3.44521 -0.5502486
    CHANNELS 3 Zrotation Xrotation Yrotation
    JOINT left_femur_tibia
    {
      OFFSET 0.8047443 -44.0398 -0.1307829
      CHANNELS 3 Zrotation Xrotation Yrotation
      JOINT left_tibia_foot
      {
        OFFSET -4.370144 -48.10324 -4.275266
        CHANNELS 3 Zrotation Xrotation Yrotation
        End Site
        {
          OFFSET 0 -5 15
        }
      }
    }
  }
  JOINT pelvis_spine1
  {
    OFFSET 0 6.468898 -3.129235
    CHANNELS 3 Zrotation Xrotation Yrotation
    JOINT spine1
    {
      OFFSET 0 23.15396 4.99043
      CHANNELS 3 Zrotation Xrotation Yrotation
      JOINT spine2
      {
        OFFSET 0 20.79997 -5.064912
        CHANNELS 3 Zrotation Xrotation Yrotation
        JOINT neck
        {
          OFFSET 0 14.38658 9.616178
          CHANNELS 3 Zrotation Xrotation Yrotation
          End Site
          {
            OFFSET 0 20 0
          }
        }
      }
      JOINT right_manubrium
      {
        OFFSET -5.722621 16.35077 3.967754
        CHANNELS 3 Zrotation Xrotation Yrotation
        JOINT right_clavicle
        {
          OFFSET -13.16364 1.694482 -4.693211
          CHANNELS 3 Zrotation Xrotation Yrotation
          JOINT right_humerus
          {
            OFFSET -28.5034 -0.3100689 -2.792744
            CHANNELS 3 Zrotation Xrotation Yrotation
            JOINT right_radius
            {
              OFFSET -25.15693 0.02248979 -1.271978
              CHANNELS 3 Zrotation Xrotation Yrotation
              End Site
              {
                OFFSET -15 0 0
              }
            }
          }
        }
      }
      JOINT left_manubrium
      {
        OFFSET 5.722621 16.35077 3.967754
        CHANNELS 3 Zrotation Xrotation Yrotation
        JOINT left_clavicle
        {
          OFFSET 13.16364 1.694482 -4.693211
          CHANNELS 3 Zrotation Xrotation Yrotation
          JOINT left_humerus
          {
            OFFSET 29.39168 -1.063119 -2.237045
            CHANNELS 3 Zrotation Xrotation Yrotation
            JOINT left_radius
            {
              OFFSET 24.59957 -0.9528479 0.9047498
              CHANNELS 3 Zrotation Xrotation Yrotation
              End Site
              {
                OFFSET 15 -0 -0
              }
            }
          }
        }
      }
    }
  }
}
MOTION
Frames: 15
Frame Time: 0.0416666666667
1996.138 74.66597 2199.343 5.63948 -1.53226 77.20415 5.075283 -19.88032 5.218924 -0 18.64417 -0 -1.619864 -6.559705 -9.899373 -3.72786 17.8869 -8.431146 -0 38.80364 -0 -7.452591 -12.07125 13.64651 -1.20203 -0.1936431 1.907532 2.077713 8.674719 -7.865516 2.503309 22.52008 5.001412 1.345678 -17.11263 8.060734 2.530715 -12.05064 10.01857 90.85945 26.08995 -22.27588 -0 0 5.381282 -15.86297 12.79918 7.016088 5.323191 -20.73103 -3.650093 -81.80897 23.34252 3.365829 0 0 -24.21635 3.930884 8.279069 8.46753
2002.742 75.61443 2201.417 5.89668 -1.85944 76.74269 5.815747 -16.34089 5.840913 -0 19.84286 -0 -1.988215 -7.284048 -8.969255 -3.498441 14.2141 -8.299158 -0 47.26023 -0 -8.115847 -9.294358 14.01642 -0.8436809 0.06147123 2.637014 2.13903 9.086528 -7.537758 2.308718 22.55718 5.145129 1.751076 -17.28433 7.712522 3.112578 -12.44023 10.37084 89.93059 26.50253 -21.49467 -0 0 6.108633 -15.22456 12.18785 6.749733 4.851202 -20.31413 -3.584822 -83.388 23.52983 5.775903 0 0 -22.38265 3.799772 7.710391 8.648347
2009.167 76.81255 2203.384 6.511942 -1.903908 76.08485 5.930703 -11.86573 6.190874 -0 19.99832 -0 -1.971077 -7.988732 -8.011766 -3.322114 8.973019 -7.75469 -0 54.07848 -0 -8.489404 -7.201758 14.63129 -0.7405882 0.432308 3.739675 1.961304 9.613514 -6.979649 2.207668 22.63877 5.182953 2.101997 -17.13465 7.330457 3.446317 -13.20114 10.74054 88.80711 26.57453 -20.20949 -0 0 7.57842 -15.44466 11.77082 6.929607 4.463865 -19.92714 -3.625375 -84.96079 23.58592 8.368953 0 0 -20.80173 3.244902 6.944254 9.345362
2015.372 77.99182 2205.227 7.263871 -1.756922 75.31784 5.639991 -6.830193 6.359266 -0 19.194 -0 -1.575736 -8.702624 -7.068876 -3.005952 2.606597 -6.865057 -0 57.82098 -0 -8.549029 -5.941008 15.46592 -0.7977861 0.8318718 5.02878 1.588861 10.17812 -6.256562 2.16787 22.68752 5.13442 2.343897 -16.83045 6.954843 3.521999 -14.36128 11.13456 87.49004 26.27707 -18.41657 -0 0 9.74946 -16.42939 11.56503 7.570258 4.193184 -19.54884 -3.723635 -86.48086 23.47012 11.10926 0 0 -19.51628 2.365967 6.096203 10.44331
2021.363 78.90474 2206.934 7.892112 -1.560952 74.52041 5.189727 -1.705452 6.409235 -0 17.78966 -0 -0.9164978 -9.547989 -6.147412 -2.374308 -4.296311 -5.727869 -0 57.7011 -0 -8.348376 -5.436143 16.43932 -0.8842518 1.194511 6.283766 1.10369 10.67605 -5.47333 2.141535 22.65314 5.064489 2.459433 -16.54692 6.645518 3.38784 -15.85196 11.52784 85.99863 25.75346 -16.18686 -0 0 12.47369 -18.00574 11.56772 8.627096 4.031816 -19.14152 -3.818952 -87.92523 23.21866 13.95725 0 0 -18.44177 1.305989 5.322134 11.78738
2027.193 79.36905 2208.501 8.189405 -1.443219 73.74453 4.756061 3.074956 6.359721 -0 16.27807 -0 -0.134306 -10.70365 -5.2566 -1.355724 -11.0448 -4.469008 -0 53.70085 -0 -7.995915 -5.486262 17.43939 -0.8921662 1.47094 7.307773 0.590383 10.98415 -4.733556 2.104984 22.53351 5.033489 2.450306 -16.39173 6.473136 3.10176 -17.50116 11.85191 84.37869 25.21472 -13.6481 -0 0 15.51235 -19.95 11.76838 9.974705 3.952167 -18.64715 -3.848004 -89.26357 22.9409 16.80355 0 0 -17.42235 0.2139418 4.801685 13.21047
2032.96 79.30701 2209.935 8.059894 -1.464306 73.01136 4.398861 7.2268 6.204146 -0 15.20245 -0 0.6956586 -12.28131 -4.397744 -0.0702944 -16.94626 -3.297662 -0 46.63726 -0 -7.633652 -5.840672 18.32546 -0.7788991 1.615377 7.993164 0.1100324 10.99267 -4.102806 2.067938 22.35968 5.076531 2.342329 -16.3836 6.494248 2.718267 -19.07487 12.01523 82.7002 24.83693 -10.97397 -0 0 18.59068 -21.99909 12.14321 11.40956 3.930003 -17.99435 -3.758875 -90.4737 22.77311 19.5054 0 0 -16.28778 -0.7800103 4.673308 14.54998
2038.801 78.76719 2211.255 7.561518 -1.57529 72.32303 4.038074 10.69304 5.950073 -0 15.07559 -0 1.614072 -14.12742 -3.553707 1.116296 -21.46753 -2.530249 -0 38.09512 -0 -7.380206 -6.279948 18.94865 -0.6016886 1.578433 8.379643 -0.3161283 10.66471 -3.584869 2.063852 22.16649 5.192306 2.189294 -16.4718 6.716514 2.288622 -20.35811 11.94757 81.08668 24.66125 -8.394361 -0 0 21.45323 -23.8767 12.62438 12.69502 3.955258 -17.13476 -3.530978 -91.55657 22.8011 21.95255 0 0 -14.93491 -1.587729 4.931616 15.67886
2044.874 77.91809 2212.481 6.903838 -1.623395 71.68841 3.494528 13.58055 5.658811 -0 16.32184 -0 2.693479 -15.6376 -2.733386 1.695649 -24.35262 -2.469664 -0 30.08149 -0 -7.242898 -6.695042 19.21016 -0.5172369 1.322723 8.635368 -0.6970326 10.10234 -3.143436 2.124372 21.96848 5.338379 2.058175 -16.59857 7.069477 1.869094 -21.23537 11.65534 79.76375 24.57168 -6.216942 -0 0 23.85577 -25.34514 13.06592 13.6472 4.013236 -16.11307 -3.197552 -92.50884 22.99444 24.08299 0 0 -13.40857 -2.17472 5.364979 16.54262
2051.312 77.01247 2213.635 6.374292 -1.451575 71.15042 2.629962 15.90453 5.449849 -0 19.27621 -0 3.827732 -15.83254 -2.085853 1.322116 -25.57384 -3.15757 -0 24.38731 -0 -7.080214 -7.114896 19.12895 -0.7064889 0.8667164 8.912494 -1.035852 9.554262 -2.77195 2.249636 21.76561 5.444892 1.996274 -16.75975 7.414007 1.535381 -21.7016 11.25091 79.03769 24.41643 -4.793745 -0 0 25.49583 -26.27201 13.2761 14.21534 4.047602 -15.11828 -2.855638 -93.25536 23.22303 25.80177 0 0 -11.906 -2.551345 5.646595 17.16857
2058.149 76.32628 2214.737 6.212414 -1.046166 70.79341 1.511757 17.34829 5.435932 -0 24.15299 -0 4.682051 -13.94126 -1.926401 0.09602997 -25.18323 -4.26289 -0 21.84955 -0 -6.705257 -7.647843 18.84986 -1.237965 0.3252832 9.175573 -1.306395 9.294892 -2.537706 2.399532 21.5787 5.458106 1.999294 -16.97684 7.620765 1.383052 -21.79227 10.90818 79.12737 24.17238 -4.361542 -0 0 26.04728 -26.67625 13.16301 14.48324 3.963838 -14.41397 -2.637262 -93.62781 23.3677 26.8907 0 0 -10.66183 -2.752842 5.575331 17.62067
2065.268 76.07745 2215.812 6.492612 -0.5807598 70.71847 0.4368163 17.36873 5.613771 -0 30.82365 -0 5.041013 -10.18797 -2.483883 -1.492665 -23.27359 -5.318972 -0 21.94226 -0 -6.070839 -8.370279 18.54717 -1.97622 -0.1130767 9.208648 -1.471861 9.425713 -2.530126 2.517329 21.46578 5.396318 2.009122 -17.19674 7.679433 1.483499 -21.52512 10.74976 79.96541 23.96172 -4.860042 -0 0 25.40896 -26.70811 12.88113 14.57617 3.709654 -14.14918 -2.636627 -93.46749 23.41064 27.07939 0 0 -9.816966 -2.81644 5.24637 17.92068
2072.446 76.35042 2216.87 7.092399 -0.2796916 70.99835 -0.2633034 15.60988 5.835806 -0 38.52765 -0 5.083612 -5.879034 -3.652455 -2.930155 -20.05662 -6.084191 -0 23.1548 -0 -5.335953 -9.259034 18.28792 -2.648812 -0.2905246 8.822172 -1.518472 9.797976 -2.77269 2.563181 21.48294 5.357256 1.95631 -17.27711 7.717963 1.815744 -20.92417 10.76161 81.21576 23.92983 -5.965157 -0 0 23.88886 -26.56338 12.76686 14.56819 3.353213 -14.25437 -2.847193 -92.75153 23.40522 26.24377 0 0 -9.428474 -2.759024 4.947927 18.01425
2079.456 77.07295 2217.896 7.781566 -0.2430372 71.641 -0.4658926 12.1717 5.920699 -0 45.93533 -0 5.111813 -2.496394 -5.093735 -3.961083 -15.88331 -6.614307 -0 23.99001 -0 -4.733072 -10.23112 18.00082 -3.033536 -0.1790527 8.014571 -1.460776 10.15726 -3.212181 2.528035 21.63516 5.444523 1.814907 -17.10889 7.881841 2.258437 -20.06587 10.8275 82.52064 24.15356 -7.336313 -0 0 22.00795 -26.39143 13.07267 14.47839 3.050189 -14.56224 -3.179207 -91.58706 23.39778 24.49163 0 0 -9.570947 -2.573684 4.908733 17.83056
2086.152 78.05948 2218.862 8.355829 -0.409925 72.58653 -0.2976958 7.500851 5.765458 -0 51.64466 -0 5.202578 -0.7693978 -6.467383 -4.579529 -11.16915 -7.057997 -0 23.70886 -0 -4.396488 -11.23082 17.5791 -3.085672 0.1281634 6.940292 -1.321375 10.33664 -3.775379 2.426717 21.8759 5.687433 1.617485 -16.71118 8.207102 2.666354 -19.06946 10.83706 83.69858 24.62858 -8.800463 -0 0 20.15612 -26.25209 13.78925 14.31223 2.936428 -14.98065 -3.538931 -90.12208 23.40274 22.07028 0 0 -10.34266 -2.253214 5.174979 17.36045
